<svg xmlns="http://www.w3.org/2000/svg" viewBox="0 0 512 512">
  <defs>
    <radialGradient id="bg" cx="50%" cy="40%" r="70%">
      <stop offset="0%" stop-color="#0074b3"/>
      <stop offset="55%" stop-color="#003d6b"/>
      <stop offset="100%" stop-color="#001f3f"/>
    </radialGradient>
    <linearGradient id="shell" x1="0%" y1="0%" x2="100%" y2="100%">
      <stop offset="0%"  stop-color="#e89dd6"/>
      <stop offset="60%" stop-color="#9c27b0"/>
      <stop offset="100%" stop-color="#ffd700"/>
    </linearGradient>
  </defs>
  <rect width="512" height="512" rx="96" fill="url(#bg)"/>
  <g transform="translate(256,296)">
    <path d="M -180,0
             C -180,-140 -60,-200 0,-200
             C 60,-200 180,-140 180,0
             Z"
          fill="url(#shell)" stroke="#ffd700" stroke-width="6"/>
    <g stroke="rgba(255,255,255,0.55)" stroke-width="4" stroke-linecap="round" fill="none">
      <line x1="0" y1="0" x2="0"    y2="-195"/>
      <line x1="0" y1="0" x2="-55"  y2="-188"/>
      <line x1="0" y1="0" x2="55"   y2="-188"/>
      <line x1="0" y1="0" x2="-105" y2="-165"/>
      <line x1="0" y1="0" x2="105"  y2="-165"/>
      <line x1="0" y1="0" x2="-145" y2="-125"/>
      <line x1="0" y1="0" x2="145"  y2="-125"/>
      <line x1="0" y1="0" x2="-170" y2="-65"/>
      <line x1="0" y1="0" x2="170"  y2="-65"/>
    </g>
    <ellipse cx="0" cy="0" rx="18" ry="8" fill="#ffd700" opacity="0.9"/>
  </g>
</svg>
